<svg xmlns="http://www.w3.org/2000/svg" name="svg-container-graph-0" style="height: 400px; width: 650px;"><defs><marker class="marker" id="marker-small" viewBox="0 -5 10 10" refX="0" refY="0" markerWidth="6" markerHeight="6" orient="auto" fill="#d3d3d3"><path d="M0,-5L10,0L0,5"/></marker><marker class="marker" id="marker-small-highlighted" viewBox="0 -5 10 10" refX="0" refY="0" markerWidth="6" markerHeight="6" orient="auto" fill="#03A062"><path d="M0,-5L10,0L0,5"/></marker><marker class="marker" id="marker-medium" viewBox="0 -5 10 10" refX="0" refY="0" markerWidth="6" markerHeight="6" orient="auto" fill="#d3d3d3"><path d="M0,-5L10,0L0,5"/></marker><marker class="marker" id="marker-medium-highlighted" viewBox="0 -5 10 10" refX="0" refY="0" markerWidth="6" markerHeight="6" orient="auto" fill="#03A062"><path d="M0,-5L10,0L0,5"/></marker><marker class="marker" id="marker-large" viewBox="0 -5 10 10" refX="0" refY="0" markerWidth="6" markerHeight="6" orient="auto" fill="#d3d3d3"><path d="M0,-5L10,0L0,5"/></marker><marker class="marker" id="marker-large-highlighted" viewBox="0 -5 10 10" refX="0" refY="0" markerWidth="6" markerHeight="6" orient="auto" fill="#03A062"><path d="M0,-5L10,0L0,5"/></marker></defs><g id="graph-0-graph-container-zoomable" transform="translate(-65,-40.39999999999998) scale(1.2)" style="transition-duration: 0s;"><g><path class="link" d="M100.18673071952811,70.8318635094787 A0,0 0 0,1 99.85981980236117,103.32923058892337" marker-end="url(#marker-small)" id="B,TXGY" style="stroke-width: 2; stroke: rgb(211, 211, 211); opacity: 1; fill: none; cursor: pointer; stroke-dasharray: 0; stroke-dashoffset: 0; stroke-linecap: butt;"/></g><g><path class="link" d="M99.80184573634081,130.48677234795807 A0,0 0 0,1 100.30777846172055,158.07502650232647" marker-end="url(#marker-small)" id="TXGY,TMUM" style="stroke-width: 2; stroke: rgb(211, 211, 211); opacity: 1; fill: none; cursor: pointer; stroke-dasharray: 0; stroke-dashoffset: 0; stroke-linecap: butt;"/></g><g><path class="link" d="M107.22370725912936,122.37095007730916 A210.4120119766934,210.4120119766934 0 0,1 317.1066401537244,107.45889912369853" marker-end="url(#marker-small)" id="TXGY,TCAR" style="stroke-width: 2; stroke: rgb(211, 211, 211); opacity: 1; fill: none; cursor: pointer; stroke-dasharray: 0; stroke-dashoffset: 0; stroke-linecap: butt;"/></g><g><path class="link" d="M336.747771769161,113.65035566798092 A0,0 0 0,1 337.30059487354185,151.58113014856337" marker-end="url(#marker-small)" id="TCAR,A" style="stroke-width: 2; stroke: rgb(211, 211, 211); opacity: 1; fill: none; cursor: pointer; stroke-dasharray: 0; stroke-dashoffset: 0; stroke-linecap: butt;"/></g><g><path class="link" d="M108.24384669926353,177.44399165463182 A209.84828580847636,209.84828580847636 0 0,1 318.01337733104225,171.69533309117213" marker-end="url(#marker-small)" id="TMUM,A" style="stroke-width: 2; stroke: rgb(211, 211, 211); opacity: 1; fill: none; cursor: pointer; stroke-dasharray: 0; stroke-dashoffset: 0; stroke-linecap: butt;"/></g><g><path class="link" d="M330.6561556305834,174.2302940838844 A231.17248869090076,231.17248869090076 0 0,1 119.31127780953848,267.9002580336599" marker-end="url(#marker-small)" id="A,TRBQ" style="stroke-width: 2; stroke: rgb(211, 211, 211); opacity: 1; fill: none; cursor: pointer; stroke-dasharray: 0; stroke-dashoffset: 0; stroke-linecap: butt;"/></g><g><path class="link" d="M337.66165011397067,178.73847939262225 A0,0 0 0,1 338.13094353342524,225.7158806871433" marker-end="url(#marker-small)" id="A,TBFO" style="stroke-width: 2; stroke: rgb(211, 211, 211); opacity: 1; fill: none; cursor: pointer; stroke-dasharray: 0; stroke-dashoffset: 0; stroke-linecap: butt;"/></g><g><path class="link" d="M331.4085273842155,248.39257075401082 A232.0511671486511,232.0511671486511 0 0,1 119.62071270753165,343.22751014622963" marker-end="url(#marker-small)" id="TBFO,TQWP" style="stroke-width: 2; stroke: rgb(211, 211, 211); opacity: 1; fill: none; cursor: pointer; stroke-dasharray: 0; stroke-dashoffset: 0; stroke-linecap: butt;"/></g><g><path class="link" d="M101.44490406703129,283.41376561019587 A0,0 0 0,1 101.66232607941048,331.6497432594573" marker-end="url(#marker-small)" id="TRBQ,TQWP" style="stroke-width: 2; stroke: rgb(211, 211, 211); opacity: 1; fill: none; cursor: pointer; stroke-dasharray: 0; stroke-dashoffset: 0; stroke-linecap: butt;"/></g><g><path class="link" d="M338.1945337402861,252.8735610018502 A0,0 0 0,1 336.84095517614264,330.58973753222676" marker-end="url(#marker-small)" id="TBFO,TIMC" style="stroke-width: 2; stroke: rgb(211, 211, 211); opacity: 1; fill: none; cursor: pointer; stroke-dasharray: 0; stroke-dashoffset: 0; stroke-linecap: butt;"/></g><g class="node" cx="337.5859324035224" cy="171.15895425680412" id="A" transform="translate(337.5859324035224,171.15895425680412)" style="touch-action: none; -webkit-tap-highlight-color: rgba(0, 0, 0, 0);"><path cursor="pointer" opacity="1" d="M7.978845608028654,0A7.978845608028654,7.978845608028654,0,1,1,-7.978845608028654,0A7.978845608028654,7.978845608028654,0,1,1,7.978845608028654,0" fill="blue" stroke="none" stroke-width="1.5"/><text dx="15.5" dy=".35em" fill="#03A062" font-size="12" font-weight="normal" opacity="1">Merchant Scans QR Code</text></g><g class="node" cx="100.26297775126767" cy="63.25234367994298" id="B" transform="translate(100.26297775126767,63.25234367994298)" style="touch-action: none; -webkit-tap-highlight-color: rgba(0, 0, 0, 0);"><path cursor="pointer" opacity="1" d="M7.978845608028654,0A7.978845608028654,7.978845608028654,0,1,1,-7.978845608028654,0A7.978845608028654,7.978845608028654,0,1,1,7.978845608028654,0" fill="#03A062" stroke="none" stroke-width="1.5"/><text dx="15.5" dy=".35em" fill="#03A062" font-size="12" font-weight="normal" opacity="1">Customer Aproaches POS</text></g><g class="node" cx="338.32653249896816" cy="245.29480709478338" id="TBFO" transform="translate(338.32653249896816,245.29480709478338)" style="touch-action: none; -webkit-tap-highlight-color: rgba(0, 0, 0, 0);"><path cursor="pointer" opacity="1" d="M7.978845608028654,0A7.978845608028654,7.978845608028654,0,1,1,-7.978845608028654,0A7.978845608028654,7.978845608028654,0,1,1,7.978845608028654,0" fill="blue" stroke="none" stroke-width="1.5"/><text dx="15.5" dy=".35em" fill="#03A062" font-size="12" font-weight="normal" opacity="1">POS Starts Polling</text></g><g class="node" cx="336.6373099932877" cy="106.07125726168977" id="TCAR" transform="translate(336.6373099932877,106.07125726168977)" style="touch-action: none; -webkit-tap-highlight-color: rgba(0, 0, 0, 0);"><path cursor="pointer" opacity="1" d="M7.978845608028654,0A7.978845608028654,7.978845608028654,0,1,1,-7.978845608028654,0A7.978845608028654,7.978845608028654,0,1,1,7.978845608028654,0" fill="blue" stroke="red" stroke-width="1.5"/><text dx="15.5" dy=".35em" fill="#03A062" font-size="12" font-weight="normal" opacity="1">Merchant Creates Transaction</text></g><g class="node" cx="336.49998474121094" cy="350.1666717529297" id="TIMC" transform="translate(336.49998474121094,350.1666717529297)" style="touch-action: none; -webkit-tap-highlight-color: rgba(0, 0, 0, 0);"><path cursor="pointer" opacity="1" d="M7.978845608028654,0A7.978845608028654,7.978845608028654,0,1,1,-7.978845608028654,0A7.978845608028654,7.978845608028654,0,1,1,7.978845608028654,0" fill="#03A062" stroke="none" stroke-width="1.5"/><text dx="15.5" dy=".35em" fill="#03A062" font-size="12" font-weight="normal" opacity="1">Handle Notifications</text></g><g class="node" cx="100.66678807738941" cy="177.65163822180145" id="TMUM" transform="translate(100.66678807738941,177.65163822180145)" style="touch-action: none; -webkit-tap-highlight-color: rgba(0, 0, 0, 0);"><path cursor="pointer" opacity="1" d="M7.978845608028654,0A7.978845608028654,7.978845608028654,0,1,1,-7.978845608028654,0A7.978845608028654,7.978845608028654,0,1,1,7.978845608028654,0" fill="#03A062" stroke="none" stroke-width="1.5"/><text dx="15.5" dy=".35em" fill="#03A062" font-size="12" font-weight="normal" opacity="1">Customer Presents QR Code</text></g><g class="node" cx="101.75058092455947" cy="351.22944768525326" id="TQWP" transform="translate(101.75058092455947,351.22944768525326)" style="touch-action: none; -webkit-tap-highlight-color: rgba(0, 0, 0, 0);"><path cursor="pointer" opacity="1" d="M7.978845608028654,0A7.978845608028654,7.978845608028654,0,1,1,-7.978845608028654,0A7.978845608028654,7.978845608028654,0,1,1,7.978845608028654,0" fill="#03A062" stroke="none" stroke-width="1.5"/><text dx="15.5" dy=".35em" fill="#03A062" font-size="12" font-weight="normal" opacity="1">Receipt Printed</text></g><g class="node" cx="101.41073826022262" cy="275.83393928277786" id="TRBQ" transform="translate(101.41073826022262,275.83393928277786)" style="touch-action: none; -webkit-tap-highlight-color: rgba(0, 0, 0, 0);"><path cursor="pointer" opacity="1" d="M7.978845608028654,0A7.978845608028654,7.978845608028654,0,1,1,-7.978845608028654,0A7.978845608028654,7.978845608028654,0,1,1,7.978845608028654,0" fill="#03A062" stroke="none" stroke-width="1.5"/><text dx="15.5" dy=".35em" fill="#03A062" font-size="12" font-weight="normal" opacity="1">Customer Confirms Payment</text></g><g class="node" cx="99.66286352918053" cy="122.90814328972681" id="TXGY" transform="translate(99.66286352918053,122.90814328972681)" style="touch-action: none; -webkit-tap-highlight-color: rgba(0, 0, 0, 0);"><path cursor="pointer" opacity="1" d="M7.978845608028654,0A7.978845608028654,7.978845608028654,0,1,1,-7.978845608028654,0A7.978845608028654,7.978845608028654,0,1,1,7.978845608028654,0" fill="#03A062" stroke="none" stroke-width="1.5"/><text dx="15.5" dy=".35em" fill="#03A062" font-size="12" font-weight="normal" opacity="1">"Pay with Wallet"</text></g></g></svg>